<svg width="40" height="15" viewBox="0 0 40 15" fill="none" xmlns="http://www.w3.org/2000/svg">
<path fill-rule="evenodd" clip-rule="evenodd" d="M40 0.5V0H39.79H39.29L33.0104 3.41052e-05L32.3104 0L27.0713 5.23915L20.0002 12.3102L14.6901 7H14.69L12.9291 5.23915L7.68997 0L6.98998 3.41052e-05H0V0.500034H7.48998L13.99 7H12.5793H0V8.5H14.0793L18.9401 13.3607L20.0007 14.4214L21.0614 13.3607L25.9221 8.5H27.29H32.29H34.29H40V7H34.29H33.79H32.79H32.29H27.4221H26.0104L32.5104 0.500034H35.29V0.5H40Z" fill="#EDEDED"/>
<path fill-rule="evenodd" clip-rule="evenodd" d="M7.69995 0L20.0021 12.3021L32.3042 0H7.69995Z" fill="#131313"/>
</svg>
