<svg width="47" height="36" viewBox="0 0 47 36" fill="none" xmlns="http://www.w3.org/2000/svg">
<g clip-path="url(#clip0_169_6)">
<path fill-rule="evenodd" clip-rule="evenodd" d="M39.468 3.20002C36.506 1.81502 33.339 0.809023 30.028 0.236023C29.621 0.971023 29.146 1.95802 28.819 2.74502C25.299 2.21502 21.812 2.21502 18.357 2.74502C18.03 1.95802 17.544 0.971023 17.134 0.236023C13.819 0.809023 10.649 1.81902 7.68699 3.20802C1.71299 12.231 0.0929914 21.03 0.902991 29.703C4.86499 32.661 8.70499 34.458 12.48 35.633C13.412 34.351 14.244 32.988 14.96 31.552C13.596 31.034 12.29 30.394 11.055 29.652C11.383 29.41 11.703 29.157 12.013 28.896C19.541 32.416 27.721 32.416 35.16 28.896C35.473 29.157 35.793 29.41 36.117 29.652C34.879 30.398 33.569 31.037 32.205 31.556C32.921 32.988 33.749 34.355 34.685 35.637C38.463 34.461 42.307 32.665 46.269 29.703C47.219 19.648 44.646 10.93 39.468 3.20002ZM15.986 24.369C13.726 24.369 11.872 22.26 11.872 19.692C11.872 17.125 13.686 15.012 15.986 15.012C18.285 15.012 20.139 17.121 20.099 19.692C20.102 22.26 18.285 24.369 15.986 24.369ZM31.187 24.369C28.927 24.369 27.073 22.26 27.073 19.692C27.073 17.125 28.887 15.012 31.187 15.012C33.486 15.012 35.34 17.121 35.3 19.692C35.3 22.26 33.486 24.369 31.187 24.369Z" fill="currentColor"/>
</g>
<defs>
</defs>
</svg>
