<svg width="140" height="140" viewBox="0 0 140 140" fill="none" xmlns="http://www.w3.org/2000/svg">
<path fill-rule="evenodd" clip-rule="evenodd" d="M115.373 93.2537V46.5507C115.373 44.6927 114.383 42.9767 112.775 42.0487L72.34 18.6968C70.732 17.7678 68.751 17.7678 67.53 18.6968L26.708 42.0487C25.1 42.9767 25 44.6927 25 46.5507V93.2537C25 95.1107 25.1 96.8267 26.708 97.7557L67.53 121.107C68.751 122.035 70.732 122.035 72.34 121.107L112.775 97.7557C114.383 96.8267 115.373 95.1107 115.373 93.2537Z" fill="#55382D" stroke="#EFE6D5" stroke-width="2"/>
<path fill-rule="evenodd" clip-rule="evenodd" d="M108.452 92.8187V48.3277L69.738 26.0827L31.025 48.3277V92.8187L69.738 115.064L108.452 92.8187Z" fill="#6C402E" stroke="#EFE6D5" stroke-width="2"/>
<path fill-rule="evenodd" clip-rule="evenodd" d="M31 49.5L69.735 69.8248V112.5V115L31 93V49.5Z" fill="#946551"/>
<path d="M31 49.5L31.4646 48.6145L30 47.846V49.5H31ZM69.735 69.8248H70.735V69.2202L70.1996 68.9393L69.735 69.8248ZM31 93H30V93.5821L30.5061 93.8695L31 93ZM69.735 115L69.2411 115.87C69.5507 116.045 69.9304 116.043 70.238 115.864C70.5457 115.685 70.735 115.356 70.735 115H69.735ZM30.5354 50.3855L69.2704 70.7103L70.1996 68.9393L31.4646 48.6145L30.5354 50.3855ZM68.735 69.8248V112.5H70.735V69.8248H68.735ZM32 93V49.5H30V93H32ZM68.735 112.5V115H70.735V112.5H68.735ZM70.2289 114.13L31.4939 92.1305L30.5061 93.8695L69.2411 115.87L70.2289 114.13Z" fill="#EFE6D5"/>
<path fill-rule="evenodd" clip-rule="evenodd" d="M108.5 48.5L69.747 70.4157V115L108.5 93V48.5Z" fill="#754B3A" stroke="#EFE6D5" stroke-width="2" stroke-linejoin="round"/>
</svg>
