<svg width="140" height="140" viewBox="0 0 140 140" fill="none" xmlns="http://www.w3.org/2000/svg">
<path fill-rule="evenodd" clip-rule="evenodd" d="M109.516 93.308V52.098C109.516 50.459 108.832 49.566 107.224 48.125L71.562 27.52C70.144 26.701 68.397 26.701 66.979 27.52L31.316 48.125C29.898 49.566 29.025 50.459 29.025 52.098V93.308C29.025 95.576 29.898 96.461 31.316 97.28L66.979 118.776C68.397 118.704 70.144 118.704 71.562 118.776L107.224 97.28C108.832 96.461 109.516 95.576 109.516 93.308Z" fill="#55382D" stroke="#EFE6D5" stroke-width="2"/>
<path fill-rule="evenodd" clip-rule="evenodd" d="M103.385 90.169V55.237C103.385 53.848 102.852 52.565 101.443 51.87L71.214 34.404C70.012 33.71 68.531 33.71 67.329 34.404L37.1 51.87C35.898 52.565 35.157 53.848 35.157 55.237V90.169C35.157 91.557 35.898 92.841 37.1 93.535L67.329 111.001C68.531 111.695 70.012 111.695 71.214 111.001L101.443 93.535C102.852 92.841 103.385 91.557 103.385 90.169Z" fill="#6C5642" stroke="#EFE6D5" stroke-width="2"/>
<path fill-rule="evenodd" clip-rule="evenodd" d="M127.154 87.187C122.342 89.504 102.879 98.621 89.985 118.749L89.741 119.13H80.159V90.169H90.579V100.863C95.276 95.694 100.585 91.017 106.406 87.266H62.929V76.444H128V77V87L127.154 87.187ZM69.222 50.791L58.532 82.685L57.759 119.13H48.161L47.927 118.68C47.874 118.577 42.405 108.151 32.232 99.045C24.191 91.846 15.099 88.285 11.565 87.086H11V76.447L48.833 76.444L68.578 20L87.267 73.158H76.254L69.222 50.791ZM47.34 87.266H33.788C36.232 88.279 37.484 89.724 39.162 91.224C42.005 93.77 44.749 96.6 47.34 99.659V87.266Z" fill="#3B2D55" stroke="#EFE6D5" stroke-width="2"/>
</svg>
