<svg width="140" height="140" viewBox="0 0 140 140" fill="none" xmlns="http://www.w3.org/2000/svg">
<path fill-rule="evenodd" clip-rule="evenodd" d="M59.4898 108.554L28.4377 77.7097C22.5208 71.7927 22.5208 62.1998 28.4377 57.1728L59.4898 25.4377C65.1998 19.5208 74.7938 19.5208 80.7108 25.4377L111.556 57.1728C117.473 62.1998 117.473 71.7927 111.556 77.7097L80.7108 108.554C74.7938 114.471 65.1998 114.471 59.4898 108.554Z" fill="#6C402E" stroke="#EFE6D5" stroke-width="1.5"/>
<path fill-rule="evenodd" clip-rule="evenodd" d="M59.4898 114.554L28.4377 83.7088C22.5208 77.7928 22.5208 68.1998 28.4377 62.3728L59.4898 31.4378C65.1998 25.5198 74.7938 25.5198 80.7108 31.4378L111.556 62.3728C117.473 68.1998 117.473 77.7928 111.556 83.7088L80.7108 114.554C74.7938 120.472 65.1998 120.472 59.4898 114.554Z" fill="#83523D" stroke="#EFE6D5" stroke-width="1.5"/>
<path fill-rule="evenodd" clip-rule="evenodd" d="M85.8378 72.9958L93.6597 65.1738C94.8277 64.0058 94.8277 62.1117 93.6597 60.9437C92.4917 59.7757 90.5978 59.7757 89.4298 60.9437L81.6068 68.7657L74.2267 61.3857L82.0488 53.5638C83.2178 52.3958 83.2178 50.5018 82.0488 49.8828C80.8808 48.1658 78.9878 48.1658 77.8188 49.8828L69.9968 57.1558L62.1748 49.8828C61.0068 48.1658 59.1127 48.1658 57.9447 49.8828C56.7767 50.5018 56.7767 52.3958 57.9447 53.5638L65.7668 61.3857L58.3868 68.7657L50.5648 60.9437C49.3968 59.7757 47.5028 59.7757 47.0098 60.9437C45.1668 62.1117 45.1668 64.0058 47.0098 65.1738L54.1568 72.9958L47.0098 80.8177C45.1668 81.9857 45.1668 83.8798 47.0098 85.0478C47.5028 86.2158 49.3968 86.2158 50.5648 85.0478L58.3868 77.2268L65.7668 84.6058L57.9447 92.4277C56.7767 93.5957 56.7767 95.4907 57.9447 96.6577C59.1127 97.8257 61.0068 97.8257 62.1748 96.6577L69.9968 88.8358L77.8188 96.6577C78.9878 97.8257 80.8808 97.8257 82.0488 96.6577C83.2178 95.4907 83.2178 93.5957 82.0488 92.4277L74.2267 84.6058L81.6068 77.2268L89.4298 85.0478C90.5978 86.2158 92.4917 86.2158 93.6597 85.0478C94.8277 83.8798 94.8277 81.9857 93.6597 80.8177L85.8378 72.9958ZM69.9968 80.3757L62.6168 72.9958L69.9968 65.6158L77.3768 72.9958L69.9968 80.3757Z" fill="#EFE6D5" stroke="#EFE6D5"/>
</svg>
