<svg width="140" height="140" viewBox="0 0 140 140" fill="none" xmlns="http://www.w3.org/2000/svg">
<path fill-rule="evenodd" clip-rule="evenodd" d="M98.427 94.431V49.957L59.713 27.721L21 49.957V94.431L59.713 116.668L98.427 94.431Z" fill="#6C402E" stroke="#EFE6D5" stroke-width="2"/>
<path fill-rule="evenodd" clip-rule="evenodd" d="M94.589 111.268H21.069V13H94.589V111.268Z" fill="#55382D" stroke="#EFE6D5" stroke-width="2"/>
<path fill-rule="evenodd" clip-rule="evenodd" d="M103.835 121.71H30.315V23.441H103.835V121.71Z" fill="#5D524E" stroke="#EFE6D5" stroke-width="2"/>
<path fill-rule="evenodd" clip-rule="evenodd" d="M96.002 90.632H38.805V31.428H96.002V90.632Z" fill="#908B89" stroke="#EFE6D5" stroke-width="2"/>
<path fill-rule="evenodd" clip-rule="evenodd" d="M81.034 71.145V54.93L67.075 46.823L53.485 54.93V71.145L67.075 79.253L81.034 71.145Z" fill="#7F5441" stroke="#EFE6D5" stroke-width="2"/>
<path d="M57.458 58.239L67.075 64.037V73.575" stroke="#EFE6D5" stroke-width="2"/>
<path d="M76.692 58.239L67.075 64.037V73.575" stroke="#EFE6D5" stroke-width="2"/>
<path fill-rule="evenodd" clip-rule="evenodd" d="M56.641 115.253H38.805V96.651H56.641V115.253Z" fill="#C8AA92" stroke="#EFE6D5" stroke-width="2"/>
<path fill-rule="evenodd" clip-rule="evenodd" d="M96.002 115.253H62.542V96.651H96.002V115.253Z" fill="#C8AA92" stroke="#EFE6D5" stroke-width="2"/>
<path fill-rule="evenodd" clip-rule="evenodd" d="M91.199 90.896L76.496 105.685L70.815 99.97L66.395 105.235L76.496 114.578L95.619 95.505L91.199 90.896Z" fill="#B13939"/>
<path fill-rule="evenodd" clip-rule="evenodd" d="M56.412 112.97L56.938 113.47L54.978 116.025L47.757 108.472L40.536 116.025L38.575 113.47L38.836 113.445V112.47V111.495L38.575 111.47L44.744 105.61L38.575 99.75L38.836 99.725L39.076 98.825L38.836 97.775L38.575 97.75L40.536 95.888L47.757 102.747L54.978 95.888L56.938 97.75L56.412 98.25L56.938 98.75L56.412 99.25L56.938 99.75L50.77 105.61L56.938 111.47L56.412 111.97L56.938 112.47L56.412 112.97Z" fill="#EFE6D5"/>
<path fill-rule="evenodd" clip-rule="evenodd" d="M103.635 105.636C103.635 105.636 89.254 105.636 86.885 105.636C84.884 105.636 82.337 106.001 82.337 109.295C82.337 111.305 83.252 112.911 86.932 112.911C88.751 112.911 94.699 112.911 94.699 112.911C94.699 112.911 94.862 115.678 96.789 120.249C98.717 124.821 100.04 126.905 103.233 126.905C106.425 126.905 113.185 126.905 115.026 126.905C116.867 126.905 119.197 126.731 119.197 122.709C119.197 118.687 119.197 114.867 119.197 112.668C119.197 110.469 117.967 108.987 114.364 106.823C110.762 104.659 107.984 96.239 107.984 96.239C107.984 96.239 103.518 95.175 102.053 97.1C100.589 99.791 103.635 105.636 103.635 105.636Z" fill="#7F6550" stroke="#EFE6D5" stroke-width="2"/>
</svg>
