<svg width="140" height="140" viewBox="0 0 140 140" fill="none" xmlns="http://www.w3.org/2000/svg">
<path fill-rule="evenodd" clip-rule="evenodd" d="M113.772 98.985L72.832 121.848C71.204 122.783 69.199 122.783 67.571 121.848L26.631 98.985C25.003 97.393 24 95.664 24 93.794V46.755C24 44.885 25.003 43.156 26.631 42.221L67.571 18.702C69.199 17.766 71.204 17.766 72.832 18.702L113.772 42.221C115.4 43.156 116.403 44.885 116.403 46.755V93.794C116.403 95.664 115.4 97.393 113.772 98.985Z" fill="#3B2D55" stroke="#EFE6D5" stroke-width="2"/>
<path fill-rule="evenodd" clip-rule="evenodd" d="M109.7 92.718V47.832L70.202 25.388L31.135 47.832V92.718L70.202 115.161L109.7 92.718Z" fill="#756593" stroke="#EFE6D5" stroke-width="2"/>
<path opacity="0.561" fill-rule="evenodd" clip-rule="evenodd" d="M32.833 48.188L70.72 69.755V114.755L67.595 113.946L31.22 92.755V48.188H32.833Z" fill="#614B8A" stroke="#EFE6D5" stroke-width="2"/>
<path opacity="0.561" fill-rule="evenodd" clip-rule="evenodd" d="M108.02 48.041L70.82 69.694V113.635L72.038 114.49L109.72 92.755V48.041H108.02Z" fill="#534273" stroke="#EFE6D5" stroke-width="2"/>
<path fill-rule="evenodd" clip-rule="evenodd" d="M99.192 56.229L93.385 63.545C92.097 62.118 89.478 60.587 86.128 60.104C85.747 60.049 85.214 60.003 84.618 60.003C82.486 60.003 79.541 60.591 79.815 63.455C79.993 65.795 83.156 65.071 86.201 66.016C89.371 66.998 91.748 68.506 92.81 69.424C95.7 71.551 96.904 74.491 96.98 78.565C96.18 85.125 89.873 87.722 83.931 88.617L82.981 93.981H73.143L74.075 88.721C70.407 88.119 66.801 86.657 63.962 84.66L70.39 77.006C72.846 79.415 76.842 80.434 79.928 80.434C80.103 80.434 80.76 80.431 80.442 80.425C82.544 81.145 85.403 79.228 84.535 76.456C84.52 75.543 83.403 74.63 81.85 74.072C77.521 73.085 72.992 71.789 71.218 68.694C67.493 62.198 72.013 53.467 80.498 52.481L81.448 47.117H91.88L90.344 52.428C93.813 52.945 96.59 54.138 99.192 56.229ZM70.445 54.175L46.443 50.472L77.645 46.736L77.19 49.755C74.606 50.083 72.93 51.476 70.445 54.175ZM67.69 57.165C67.055 58.415 66.633 59.727 66.377 61.054L44.535 58.438L68.654 55.55C69.07 56.068 67.976 56.601 67.69 57.165ZM68.13 69.359L42.628 66.404L66.117 63.592C66.096 65.575 66.495 67.537 68.13 69.359ZM69.169 72.795L67.86 74.609L65.088 77.585L40.721 74.37L68.35 71.075C68.52 71.512 68.827 71.929 69.169 72.795ZM61.009 83.055L58.971 84.749L38.813 83.065L63.359 79.397L61.009 83.055ZM61.762 87.757C64.093 89.397 66.826 90.707 69.698 91.583L69.39 93.935L69.42 94.173L36.906 90.715L61.4 87.388L61.762 87.757Z" fill="#E5DBCA"/>
</svg>
