<svg width="372" height="87" viewBox="0 0 372 87" fill="none" xmlns="http://www.w3.org/2000/svg">
<path d="M54.13 38.8999L45.97 43.6099V53.0299L54.13 57.7399L62.29 53.0299V43.6099L54.13 38.8999ZM54.91 48.4999L54.27 55.6999H53.98L53.34 48.5199L47.51 44.4999L47.66 44.2399L54.14 47.2699L60.59 44.2399L60.66 44.3599L60.74 44.4999L54.91 48.4999Z" fill="#FFE892"/>
<path d="M21.3801 27.29C19.4201 30.69 20.5801 35.04 23.9801 37C20.5801 35.04 16.2301 36.2 14.2701 39.6C16.2301 36.2 13.0301 30.68 7.12012 27.26C13.0201 30.68 19.4101 30.69 21.3801 27.29Z" fill="#FFE892"/>
<path d="M39.29 14.5899C35.89 16.5499 34.72 20.8999 36.69 24.2999C34.73 20.8999 30.38 19.73 26.98 21.7C30.38 19.74 30.37 13.3499 26.96 7.42993C30.36 13.3499 35.89 16.5499 39.29 14.5899Z" fill="#FFE892"/>
<path d="M81.11 21.7099C77.71 19.7499 73.36 20.9099 71.4 24.3099C73.36 20.9099 72.2 16.5599 68.8 14.5999C72.2 16.5599 77.7201 13.36 81.1401 7.44995C77.7301 13.36 77.71 19.7499 81.11 21.7099Z" fill="#FFE892"/>
<path d="M93.8101 39.6298C91.8501 36.2298 87.5001 35.0598 84.1001 37.0298C87.5001 35.0698 88.6701 30.7198 86.7001 27.3198C88.6601 30.7198 95.0501 30.7098 100.97 27.2998C95.0601 30.6998 91.8501 36.2298 93.8101 39.6298Z" fill="#FFE892"/>
<path d="M73.88 59.0601L76.28 64.1601C76.28 64.1601 79.26 61.7301 82.74 56.4401C85.61 52.0801 84.59 48.3201 84.59 48.3201H108.26C108.26 48.3201 102.56 48.4701 88.83 63.7101C76.68 77.1901 71.59 86.1001 71.59 86.1001C71.59 86.1001 68.47 75.74 65.48 64.11C68.64 62.74 71.47 60.9401 73.88 59.0601Z" fill="#664DD4"/>
<path d="M34.38 59.0601L31.98 64.1601C31.98 64.1601 29 61.7301 25.52 56.4401C22.65 52.0801 23.67 48.3201 23.67 48.3201H0C0 48.3201 5.69999 48.4701 19.43 63.7101C31.58 77.1901 36.67 86.1001 36.67 86.1001C36.67 86.1001 39.79 75.74 42.78 64.11C39.62 62.74 36.79 60.9401 34.38 59.0601Z" fill="#664DD4"/>
<path d="M54.1401 67.9L55.9201 62.71H52.3501L54.1401 67.9Z" fill="#664DD4"/>
<path d="M54.1301 32.4399C38.3801 32.4399 27.0801 48.3199 27.0801 48.3199C27.0801 48.3199 38.3801 64.2 54.1301 64.2C69.8801 64.2 81.1801 48.3199 81.1801 48.3199C81.1801 48.3199 69.8801 32.4399 54.1301 32.4399ZM54.1301 59.3799C43.1601 59.3799 34.2601 48.3199 34.2601 48.3199C34.2601 48.3199 43.5801 37.2599 54.1301 37.2599C65.1001 37.2599 74.0001 48.3199 74.0001 48.3199C74.0001 48.3199 65.1001 59.3799 54.1301 59.3799Z" fill="#664DD4"/>
<path d="M54.1301 28.74L52.3501 33.93H55.9201L54.1301 28.74Z" fill="#664DD4"/>
<path d="M51.5001 30.21L54.1301 23.27L56.7601 30.21C60.1301 30.55 63.2701 31.51 66.1201 32.82L54.1301 0L42.1401 32.82C44.9901 31.51 48.1301 30.55 51.5001 30.21Z" fill="#664DD4"/>
<path fill-rule="evenodd" clip-rule="evenodd" d="M362.357 54.9139C362.357 57.1301 363.72 57.9732 363.729 57.9763L363.372 59.3841C363.343 59.3873 360.198 59.7105 358.79 60.2938C356.285 61.3169 353.039 61.9062 349.89 61.9062C341.32 61.9062 335.213 57.0964 333.983 50.0171L333.793 49.8887L329.536 47.6449L333.793 45.4007L333.89 45.3428C334.928 38.0089 341.134 33 349.89 33C354.858 33 357.408 34.9936 357.408 34.9936C357.408 34.9936 356.716 33.0184 356.723 33H360.582L363.008 42.6602H360.339C359.42 40.0874 358.326 39.1946 356.68 38.2354C354.984 37.2476 353.528 36.8332 350.32 36.8332C344.34 36.8332 340.213 40.2726 339.505 45.4958L343.582 47.6449L339.641 49.7225C340.586 54.9105 344.29 58.0761 349.89 58.0761C353.313 58.0761 355.651 57.4315 356.648 56.2068C357.411 55.2796 357.41 54.6072 357.409 52.3674L357.408 52.0389C357.408 48.1974 354.526 48.2779 354.095 48.2898C354.07 48.2905 354.054 48.291 354.046 48.2905V46.5373H364.907L365 48.2819C364.891 48.3034 362.357 48.8574 362.357 51.554V54.9139ZM328.341 47.6449L324.203 49.8269V61.3675L319.25 61.3491L301.949 39.0064L301.935 45.503L305.997 47.6449L301.926 49.791L301.913 55.953C301.913 58.6404 305.333 59.6199 305.368 59.6297L305.244 61.3675H293.663V59.6297C293.698 59.6199 297.118 58.6404 297.118 55.953V49.7992L293.031 47.6449L297.118 45.4902V38.9532C297.118 36.2664 293.698 35.2862 293.663 35.277V33.5382C293.663 33.5382 301.06 33.576 302.467 33.576C303.543 33.576 303.935 33.8206 304.508 34.5158L319.452 54.3452L319.438 49.7793L315.39 47.6449L319.426 45.5173L319.408 38.9532C319.408 36.2664 315.988 35.2862 315.953 35.277V33.5382H327.661V35.277C327.626 35.2862 324.203 36.2664 324.203 38.9532V45.4631L328.341 47.6449ZM279.718 59.6138L282.663 59.6169C282.663 59.6169 273.171 48.1243 273.123 48.0593L268.671 51.6506C268.293 51.9575 268.044 52.1673 267.901 52.2896V57.1245C267.901 58.1354 268.354 58.8311 269.286 59.244C270.057 59.5893 270.891 59.6138 271.127 59.6138L271.194 61.3675H259.383L259.402 59.6138C260.007 59.6138 262.714 59.4886 262.714 57.1245V49.5797L259.043 47.6449L262.714 45.7097V37.9735C262.714 35.3737 259.51 35.295 259.377 35.2919L259.383 33.5382H271.194L271.203 35.2919C271.066 35.295 267.901 35.386 267.901 37.9735V46.7748L281.238 35.2826H279.148V33.5382H290.668L290.687 35.2919C290.665 35.2919 288.322 35.4484 283.724 39.0775L277.072 44.8906L285.867 55.6686C288.672 59.5044 291.318 59.6138 291.608 59.6138L291.646 61.3675H279.68L279.718 59.6138ZM252.713 51.5784H255.533C255.533 51.5784 254.257 61.9062 242.51 61.9062C233.739 61.9062 227.48 57.01 226.329 49.8059L222.231 47.6449L226.261 45.5198C227.215 38.0836 233.446 33 242.236 33C244.302 33 245.732 33.1893 246.843 33.4911C249.547 34.2257 250.327 35.1501 250.33 35.144L249.706 33H253.565L254.813 42.6602H253.323L252.698 41.1254C252.111 39.7012 250.948 38.5905 249.911 37.9296C248.478 37.0159 245.92 36.2706 242.666 36.2706C236.72 36.2706 232.619 40.2783 231.923 45.5112L235.97 47.6449L232.09 49.6903C233.118 54.8363 237.132 58.0761 243.016 58.0761C246.327 58.0761 248.174 57.6602 250.032 56.4482C253.08 54.4597 252.697 51.6153 252.713 51.5784ZM201.609 61.9062C192.927 61.9062 186.685 57.0115 185.561 49.7849L181.502 47.6449L185.516 45.5281C186.468 38.0789 192.768 33 201.609 33C210.41 33 216.681 38.0657 217.645 45.4932L221.726 47.6449L217.598 49.8213C216.461 57.0258 210.251 61.9062 201.609 61.9062ZM211.837 45.5301C210.999 40.1621 207.287 36.5601 201.609 36.5601C195.912 36.5601 191.973 40.2844 191.289 45.4763L195.402 47.6449L191.432 49.7383C192.376 54.8946 196.056 58.3456 201.609 58.3456C207.177 58.3456 211.073 54.7789 211.886 49.7859L207.826 47.6449L211.837 45.5301ZM183.442 54.3006H184.728L184.776 62.0909H183.022C183.022 62.0909 183.186 61.3675 180.589 61.3675C177.233 61.3675 174.876 61.3328 172.067 61.3016L171.598 61.2963L171.571 61.2959C169.466 61.273 167.539 61.252 165.826 61.252C163.913 61.252 159.795 61.3675 159.795 61.3675V59.6297C159.795 59.6297 163.25 58.6404 163.25 55.953V49.8371L159.091 47.6449L163.25 45.4524V38.9532C163.25 34.8361 159.795 35.2919 159.795 35.2919V33.5382H171.857V35.277C171.856 35.2775 171.844 35.2762 171.825 35.2741C171.476 35.236 168.437 34.9037 168.437 38.9532V45.4007L172.694 47.6449L168.437 49.8887V55.953C168.437 57.1501 168.781 57.4974 169.969 57.4974H179.622C183.81 57.4974 183.442 54.3006 183.442 54.3006ZM145.275 61.3675H125.676V59.6297C125.711 59.6199 129.131 58.6404 129.131 55.953V49.8228L125 47.6449L129.131 45.4666V38.9532C129.131 36.2664 125.711 35.2862 125.676 35.277V33.5382H144.61C150.793 33.5382 154.341 36.2286 154.341 40.9162C154.341 43.5247 152.958 45.6606 150.682 46.6561C154.01 47.7611 155.983 50.2453 155.983 53.4141C155.983 57.0432 154.127 61.3675 145.275 61.3675ZM143.358 37.4087H134.872C134.385 37.4087 134.318 37.4748 134.318 37.9542V44.4922C134.318 45.018 134.429 45.0748 134.872 45.0748H143.594C147.233 45.0748 149.077 43.8439 149.077 41.4139C149.077 38.5705 147.421 37.4087 143.358 37.4087ZM143.476 48.9075H134.872C134.429 48.9075 134.318 48.9643 134.318 49.4902V55.953C134.318 57.1501 134.662 57.4974 135.85 57.4974H144.571C148.418 57.4974 150.29 56.1975 150.29 53.5291C150.29 50.4198 148.061 48.9075 143.476 48.9075Z" fill="#DFDFDF"/>
</svg>
