<svg width="40" height="40" viewBox="0 0 40 40" fill="none" xmlns="http://www.w3.org/2000/svg">
<g clip-path="url(#clip0_169_8)">
<path fill-rule="evenodd" clip-rule="evenodd" d="M28.419 12.077C28.426 12.077 28.437 12.077 28.447 12.077C28.719 12.077 28.971 12.162 29.178 12.306L29.174 12.304C29.325 12.435 29.426 12.62 29.451 12.828V12.832C29.477 12.991 29.491 13.173 29.491 13.359C29.491 13.443 29.488 13.527 29.482 13.61V13.598C29.189 16.678 27.921 24.147 27.276 27.595C27.003 29.055 26.466 29.544 25.946 29.591C24.816 29.696 23.958 28.845 22.863 28.127C21.149 27.003 20.181 26.303 18.518 25.207C16.595 23.942 17.842 23.244 18.936 22.108C19.224 21.808 24.205 17.277 24.302 16.867C24.307 16.842 24.31 16.814 24.31 16.786C24.31 16.685 24.272 16.592 24.211 16.522C24.144 16.478 24.059 16.453 23.971 16.453C23.912 16.453 23.856 16.465 23.804 16.485L23.807 16.483C23.635 16.522 20.898 18.331 15.595 21.91C15.016 22.366 14.286 22.654 13.49 22.689H13.482C12.355 22.552 11.332 22.302 10.361 21.944L10.457 21.975C9.23701 21.577 8.26901 21.368 8.35201 20.694C8.39601 20.344 8.87901 19.986 9.80001 19.618C15.476 17.146 19.261 15.516 21.155 14.729C23.244 13.62 25.666 12.707 28.213 12.116L28.417 12.076L28.419 12.077ZM20.368 0.356018C9.57401 0.382018 0.833008 9.13902 0.833008 19.936C0.833008 30.75 9.59901 39.516 20.413 39.516C31.228 39.516 39.994 30.75 39.994 19.936C39.994 9.13902 31.253 0.382018 20.462 0.356018H20.459C20.429 0.356018 20.398 0.356018 20.368 0.356018Z" fill="currentColor"/>
</g>
<defs>
</defs>
</svg>
