<svg width="48" height="40" viewBox="0 0 48 40" fill="none" xmlns="http://www.w3.org/2000/svg">
<g clip-path="url(#clip0_169_4)">
<path fill-rule="evenodd" clip-rule="evenodd" d="M42.735 10.02C42.764 10.44 42.764 10.859 42.764 11.282C42.764 24.163 32.945 39.019 14.989 39.019V39.01C9.685 39.019 4.491 37.501 0.026001 34.64C0.797001 34.733 1.572 34.78 2.349 34.781C6.745 34.785 11.015 33.312 14.473 30.6C10.296 30.521 6.633 27.801 5.353 23.831C6.816 24.112 8.324 24.054 9.76 23.663C5.206 22.744 1.93 18.748 1.93 14.107V13.984C3.287 14.738 4.806 15.157 6.36 15.203C2.071 12.341 0.749001 6.64299 3.339 2.18699C8.295 8.27799 15.608 11.98 23.458 12.372C22.671 8.98599 23.746 5.43799 26.282 3.05799C30.213 -0.633009 36.397 -0.443009 40.093 3.48099C42.279 3.05099 44.375 2.24899 46.292 1.11499C45.563 3.37099 44.038 5.28699 42.001 6.50599C43.936 6.27799 45.826 5.75999 47.607 4.97099C46.296 6.93299 44.645 8.64099 42.735 10.02Z" fill="currentColor"/>
</g>
<defs>
</defs>
</svg>
